<svg width="64" height="64" viewBox="0 0 64 64" fill="none" xmlns="http://www.w3.org/2000/svg">
  <rect width="64" height="64" rx="12" fill="#000000"/>
  <path d="M32 48C32 48 20 40 20 28C20 22 24 18 28 18C30 18 32 19 32 19C32 19 34 18 36 18C40 18 44 22 44 28C44 40 32 48 32 48Z" fill="url(#gradient1)"/>
  <path d="M32 32C32 32 24 28 24 20C24 16 26 14 28 14C29 14 30 15 30 15C30 15 31 14 32 14C34 14 36 16 36 20C36 28 32 32 32 32Z" fill="url(#gradient2)"/>
  <path d="M32 32C32 32 40 28 40 20C40 16 38 14 36 14C35 14 34 15 34 15C34 15 33 14 32 14C30 14 28 16 28 20C28 28 32 32 32 32Z" fill="url(#gradient3)"/>
  <circle cx="32" cy="32" r="3" fill="#22c55e"/>
  <defs>
    <linearGradient id="gradient1" x1="32" y1="18" x2="32" y2="48" gradientUnits="userSpaceOnUse">
      <stop stop-color="#4ade80"/>
      <stop offset="1" stop-color="#16a34a"/>
    </linearGradient>
    <linearGradient id="gradient2" x1="28" y1="14" x2="32" y2="32" gradientUnits="userSpaceOnUse">
      <stop stop-color="#86efac"/>
      <stop offset="1" stop-color="#22c55e"/>
    </linearGradient>
    <linearGradient id="gradient3" x1="36" y1="14" x2="32" y2="32" gradientUnits="userSpaceOnUse">
      <stop stop-color="#6ee7b7"/>
      <stop offset="1" stop-color="#10b981"/>
    </linearGradient>
  </defs>
</svg>
